<?xml version="1.0" encoding="UTF-8"?>
<svg id="logo-corporate" width="600" height="600" aria-labelledby="logo-corporate-title" version="1.1" xmlns="http://www.w3.org/2000/svg">
 <title id="logo-corporate-title">RAND Corporation</title>
 <style>.cls-1{fill:#663399;}.cls-2,.cls-3,.cls-4{fill:#fff;}.cls-3{fill-rule:evenodd;}.cls-4{stroke:#fff;stroke-width:0.5px;}</style>
 <path class="cls-1" d="m-1.3642-1.3805 602.64-0.1038v602.85h-602.64z" fill="#639" stroke-width="3.638"/>
 <g fill="#fff">
  <g stroke-width="3.6256">
   <path class="cls-2" d="m299.55 487.3v-124.54h3.408l91.582 96.005v-93.213h13.56v123.52h-2.5379l-92.452-96.73v94.953z"/>
   <path class="cls-3" d="m457.11 487.4h22.624c19.07 0 33.645-2.4291 48.147-15.372a62.65 62.65 0 0 0-0.29005-91.835c-14.502-12.291-29.295-14.72-47.567-14.72h-22.914zm13.56-12.617v-96.621h9.8615c14.502 0 26.684 1.9578 37.851 11.819a49.888 49.888 0 0 1 0.6526 72.257c-11.167 10.514-23.639 12.617-38.503 12.617h-9.8615zm-228.59-22.043h-52.099l-14.72 34.66h-14.865l54.891-124.54h2.6829l53.296 124.54h-15.01l-14.502-34.588zm-5.3658-12.472h-41.223l20.811-48.836z" fill-rule="evenodd"/>
   <path class="cls-2" d="m74.255 433.93v53.477h-13.56v-122.04h27.772c10.514 0 21.318 0.3263 30.237 6.4535a33.573 33.573 0 0 1 13.777 27.808 34.225 34.225 0 0 1-11.674 26.14 35.857 35.857 0 0 1-18.128 7.2511l38.286 54.383h-16.605l-45.537-65.985h12.254c15.01 0 27.772-4.532 27.772-21.971 0-19.904-15.952-21.318-31.832-21.318h-12.762v55.942zm358.89-434.09a414.33 414.33 0 0 1-433.29 299.44v7.2511a421.62 421.62 0 0 0 440.83-306.72h-7.5412z"/>
  </g>
  <path class="cls-4" d="m85.494 531.89a16.134 16.134 0 0 0-11.493-5.0033 15.59 15.59 0 0 0 0 31.18 16.496 16.496 0 0 0 11.384-5.0033v5.1846a19.469 19.469 0 0 1-30.89-15.626 19.687 19.687 0 0 1 19.651-19.651 18.128 18.128 0 0 1 11.239 3.6256v5.1846zm58.045 10.659a19.651 19.651 0 1 1-19.651-19.542 19.542 19.542 0 0 1 19.651 19.542zm-35.059 0a15.445 15.445 0 1 0 15.445-15.59 15.59 15.59 0 0 0-15.481 15.517zm58.553 18.78h-4.2056v-37.67h5.4383c7.2511 0 13.777 1.8853 13.777 10.405a9.8253 9.8253 0 0 1-9.4265 10.405l12.001 16.895h-5.1483l-11.384-16.533h-1.0514v16.533zm0-20.231h1.3052c4.7495 0 9.5352-0.90639 9.5352-6.7435 0-5.8372-4.532-6.7798-9.6077-6.7798h-1.2327v13.56zm41.911 20.231h-4.2056v-37.67h6.1997a15.88 15.88 0 0 1 9.354 1.9941 10.369 10.369 0 0 1 4.2419 8.5926 10.587 10.587 0 0 1-3.6256 8.085 13.596 13.596 0 0 1-8.9551 2.5016h-3.0455v16.496zm0-20.376h2.7917c4.6407 0 8.5926-1.414 8.5926-6.7798 0-6.1634-4.9308-6.5985-9.8253-6.5985h-1.559zm71.931 1.5952a19.651 19.651 0 1 1-19.651-19.542 19.542 19.542 0 0 1 19.651 19.542zm-35.059 0a15.445 15.445 0 1 0 15.445-15.59 15.59 15.59 0 0 0-15.372 15.517zm58.517 18.78h-4.0606v-37.67h5.4384c7.2511 0 13.777 1.8853 13.777 10.405a9.8253 9.8253 0 0 1-9.4265 10.405l12.001 16.895h-5.1483l-11.384-16.533h-1.0514v16.533zm0-20.231h1.3052c4.7495 0 9.5352-0.90639 9.5352-6.7435 0-5.8372-4.532-6.7798-9.6077-6.7798h-1.2689v13.56zm42.129 9.5352-4.532 10.695h-4.6045l17.33-39.482 16.931 39.482h-4.6407l-4.4594-10.695h-16.097zm8.1938-18.998-6.4535 15.082h12.726zm40.679 29.693h-4.2056v-33.79h-9.1002v-3.8794h22.478v3.8794h-9.2089v33.79zm32.666 0h-4.2056v-37.67h4.2056zm58.589-18.78a19.651 19.651 0 1 1-19.651-19.542 19.542 19.542 0 0 1 19.651 19.542zm-35.059 0a15.445 15.445 0 1 0 15.445-15.59 15.59 15.59 0 0 0-15.445 15.517zm54.601-20.484 29.367 30.781v-29.004h4.0606v39.374l-29.367-30.745v29.004h-4.2056v-39.41z" stroke="#fff" stroke-width="1.8128px"/>
 </g></svg>